<svg width="309" height="63" viewBox="0 0 309 63" fill="none" xmlns="http://www.w3.org/2000/svg">
<g filter="url(#filter0_d_3269_3228)">
<mask id="path-1-outside-1_3269_3228" maskUnits="userSpaceOnUse" x="2.09961" y="6" width="305" height="55" fill="black">
<rect fill="white" x="2.09961" y="6" width="305" height="55"/>
<path d="M16.2996 46.35C13.9663 46.35 11.8663 45.95 9.99961 45.15C8.13294 44.3167 6.66628 43.15 5.59961 41.65C4.53294 40.15 3.99961 38.4 3.99961 36.4H10.0996C10.2329 37.9 10.8163 39.1333 11.8496 40.1C12.9163 41.0667 14.3996 41.55 16.2996 41.55C18.2663 41.55 19.7996 41.0833 20.8996 40.15C21.9996 39.1833 22.5496 37.95 22.5496 36.45C22.5496 35.2833 22.1996 34.3333 21.4996 33.6C20.8329 32.8667 19.9829 32.3 18.9496 31.9C17.9496 31.5 16.5496 31.0667 14.7496 30.6C12.4829 30 10.6329 29.4 9.19961 28.8C7.79961 28.1667 6.59961 27.2 5.59961 25.9C4.59961 24.6 4.09961 22.8667 4.09961 20.7C4.09961 18.7 4.59961 16.95 5.59961 15.45C6.59961 13.95 7.99961 12.8 9.79961 12C11.5996 11.2 13.6829 10.8 16.0496 10.8C19.4163 10.8 22.1663 11.65 24.2996 13.35C26.4663 15.0167 27.6663 17.3167 27.8996 20.25H21.5996C21.4996 18.9833 20.8996 17.9 19.7996 17C18.6996 16.1 17.2496 15.65 15.4496 15.65C13.8163 15.65 12.4829 16.0667 11.4496 16.9C10.4163 17.7333 9.89961 18.9333 9.89961 20.5C9.89961 21.5667 10.2163 22.45 10.8496 23.15C11.5163 23.8167 12.3496 24.35 13.3496 24.75C14.3496 25.15 15.7163 25.5833 17.4496 26.05C19.7496 26.6833 21.6163 27.3167 23.0496 27.95C24.5163 28.5833 25.7496 29.5667 26.7496 30.9C27.7829 32.2 28.2996 33.95 28.2996 36.15C28.2996 37.9167 27.8163 39.5833 26.8496 41.15C25.9163 42.7167 24.5329 43.9833 22.6996 44.95C20.8996 45.8833 18.7663 46.35 16.2996 46.35ZM32.1254 32.1C32.1254 29.3333 32.6921 26.8833 33.8254 24.75C34.9921 22.6167 36.5587 20.9667 38.5254 19.8C40.5254 18.6 42.7254 18 45.1254 18C47.2921 18 49.1754 18.4333 50.7754 19.3C52.4087 20.1333 53.7087 21.1833 54.6754 22.45V18.45H60.4254V46H54.6754V41.9C53.7087 43.2 52.3921 44.2833 50.7254 45.15C49.0587 46.0167 47.1587 46.45 45.0254 46.45C42.6587 46.45 40.4921 45.85 38.5254 44.65C36.5587 43.4167 34.9921 41.7167 33.8254 39.55C32.6921 37.35 32.1254 34.8667 32.1254 32.1ZM54.6754 32.2C54.6754 30.3 54.2754 28.65 53.4754 27.25C52.7087 25.85 51.6921 24.7833 50.4254 24.05C49.1587 23.3167 47.7921 22.95 46.3254 22.95C44.8587 22.95 43.4921 23.3167 42.2254 24.05C40.9587 24.75 39.9254 25.8 39.1254 27.2C38.3587 28.5667 37.9754 30.2 37.9754 32.1C37.9754 34 38.3587 35.6667 39.1254 37.1C39.9254 38.5333 40.9587 39.6333 42.2254 40.4C43.5254 41.1333 44.8921 41.5 46.3254 41.5C47.7921 41.5 49.1587 41.1333 50.4254 40.4C51.6921 39.6667 52.7087 38.6 53.4754 37.2C54.2754 35.7667 54.6754 34.1 54.6754 32.2ZM72.6121 22.5C73.5788 21.2333 74.8954 20.1667 76.5621 19.3C78.2288 18.4333 80.1121 18 82.2121 18C84.6121 18 86.7954 18.6 88.7621 19.8C90.7621 20.9667 92.3288 22.6167 93.4621 24.75C94.5954 26.8833 95.1621 29.3333 95.1621 32.1C95.1621 34.8667 94.5954 37.35 93.4621 39.55C92.3288 41.7167 90.7621 43.4167 88.7621 44.65C86.7954 45.85 84.6121 46.45 82.2121 46.45C80.1121 46.45 78.2454 46.0333 76.6121 45.2C74.9788 44.3333 73.6454 43.2667 72.6121 42V59.1H66.9121V18.45H72.6121V22.5ZM89.3621 32.1C89.3621 30.2 88.9621 28.5667 88.1621 27.2C87.3954 25.8 86.3621 24.75 85.0621 24.05C83.7954 23.3167 82.4288 22.95 80.9621 22.95C79.5288 22.95 78.1621 23.3167 76.8621 24.05C75.5954 24.7833 74.5621 25.85 73.7621 27.25C72.9954 28.65 72.6121 30.3 72.6121 32.2C72.6121 34.1 72.9954 35.7667 73.7621 37.2C74.5621 38.6 75.5954 39.6667 76.8621 40.4C78.1621 41.1333 79.5288 41.5 80.9621 41.5C82.4288 41.5 83.7954 41.1333 85.0621 40.4C86.3621 39.6333 87.3954 38.5333 88.1621 37.1C88.9621 35.6667 89.3621 34 89.3621 32.1ZM102.699 14.8C101.665 14.8 100.799 14.45 100.099 13.75C99.3988 13.05 99.0488 12.1833 99.0488 11.15C99.0488 10.1167 99.3988 9.25 100.099 8.55C100.799 7.85 101.665 7.5 102.699 7.5C103.699 7.5 104.549 7.85 105.249 8.55C105.949 9.25 106.299 10.1167 106.299 11.15C106.299 12.1833 105.949 13.05 105.249 13.75C104.549 14.45 103.699 14.8 102.699 14.8ZM105.499 18.45V46H99.7988V18.45H105.499ZM137.232 31.55C137.232 32.5833 137.166 33.5167 137.032 34.35H115.982C116.149 36.55 116.966 38.3167 118.432 39.65C119.899 40.9833 121.699 41.65 123.832 41.65C126.899 41.65 129.066 40.3667 130.332 37.8H136.482C135.649 40.3333 134.132 42.4167 131.932 44.05C129.766 45.65 127.066 46.45 123.832 46.45C121.199 46.45 118.832 45.8667 116.732 44.7C114.666 43.5 113.032 41.8333 111.832 39.7C110.666 37.5333 110.082 35.0333 110.082 32.2C110.082 29.3667 110.649 26.8833 111.782 24.75C112.949 22.5833 114.566 20.9167 116.632 19.75C118.732 18.5833 121.132 18 123.832 18C126.432 18 128.749 18.5667 130.782 19.7C132.816 20.8333 134.399 22.4333 135.532 24.5C136.666 26.5333 137.232 28.8833 137.232 31.55ZM131.282 29.75C131.249 27.65 130.499 25.9667 129.032 24.7C127.566 23.4333 125.749 22.8 123.582 22.8C121.616 22.8 119.932 23.4333 118.532 24.7C117.132 25.9333 116.299 27.6167 116.032 29.75H131.282ZM155.742 18C157.908 18 159.842 18.45 161.542 19.35C163.275 20.25 164.625 21.5833 165.592 23.35C166.558 25.1167 167.042 27.25 167.042 29.75V46H161.392V30.6C161.392 28.1333 160.775 26.25 159.542 24.95C158.308 23.6167 156.625 22.95 154.492 22.95C152.358 22.95 150.658 23.6167 149.392 24.95C148.158 26.25 147.542 28.1333 147.542 30.6V46H141.842V18.45H147.542V21.6C148.475 20.4667 149.658 19.5833 151.092 18.95C152.558 18.3167 154.108 18 155.742 18Z"/>
<path d="M184.763 46.35C182.429 46.35 180.329 45.95 178.463 45.15C176.596 44.3167 175.129 43.15 174.063 41.65C172.996 40.15 172.463 38.4 172.463 36.4H178.563C178.696 37.9 179.279 39.1333 180.313 40.1C181.379 41.0667 182.863 41.55 184.763 41.55C186.729 41.55 188.263 41.0833 189.363 40.15C190.463 39.1833 191.013 37.95 191.013 36.45C191.013 35.2833 190.663 34.3333 189.963 33.6C189.296 32.8667 188.446 32.3 187.413 31.9C186.413 31.5 185.013 31.0667 183.213 30.6C180.946 30 179.096 29.4 177.663 28.8C176.263 28.1667 175.063 27.2 174.063 25.9C173.063 24.6 172.563 22.8667 172.563 20.7C172.563 18.7 173.063 16.95 174.063 15.45C175.063 13.95 176.463 12.8 178.263 12C180.063 11.2 182.146 10.8 184.513 10.8C187.879 10.8 190.629 11.65 192.763 13.35C194.929 15.0167 196.129 17.3167 196.363 20.25H190.063C189.963 18.9833 189.363 17.9 188.263 17C187.163 16.1 185.713 15.65 183.913 15.65C182.279 15.65 180.946 16.0667 179.913 16.9C178.879 17.7333 178.363 18.9333 178.363 20.5C178.363 21.5667 178.679 22.45 179.313 23.15C179.979 23.8167 180.813 24.35 181.813 24.75C182.813 25.15 184.179 25.5833 185.913 26.05C188.213 26.6833 190.079 27.3167 191.513 27.95C192.979 28.5833 194.213 29.5667 195.213 30.9C196.246 32.2 196.763 33.95 196.763 36.15C196.763 37.9167 196.279 39.5833 195.313 41.15C194.379 42.7167 192.996 43.9833 191.163 44.95C189.363 45.8833 187.229 46.35 184.763 46.35ZM200.588 32.2C200.588 29.3667 201.155 26.8833 202.288 24.75C203.455 22.5833 205.055 20.9167 207.088 19.75C209.122 18.5833 211.455 18 214.088 18C217.422 18 220.172 18.8 222.338 20.4C224.538 21.9667 226.022 24.2167 226.788 27.15H220.638C220.138 25.7833 219.338 24.7167 218.238 23.95C217.138 23.1833 215.755 22.8 214.088 22.8C211.755 22.8 209.888 23.6333 208.488 25.3C207.122 26.9333 206.438 29.2333 206.438 32.2C206.438 35.1667 207.122 37.4833 208.488 39.15C209.888 40.8167 211.755 41.65 214.088 41.65C217.388 41.65 219.572 40.2 220.638 37.3H226.788C225.988 40.1 224.488 42.3333 222.288 44C220.088 45.6333 217.355 46.45 214.088 46.45C211.455 46.45 209.122 45.8667 207.088 44.7C205.055 43.5 203.455 41.8333 202.288 39.7C201.155 37.5333 200.588 35.0333 200.588 32.2ZM243.419 46.45C240.819 46.45 238.469 45.8667 236.369 44.7C234.269 43.5 232.619 41.8333 231.419 39.7C230.219 37.5333 229.619 35.0333 229.619 32.2C229.619 29.4 230.235 26.9167 231.469 24.75C232.702 22.5833 234.385 20.9167 236.519 19.75C238.652 18.5833 241.035 18 243.669 18C246.302 18 248.685 18.5833 250.819 19.75C252.952 20.9167 254.635 22.5833 255.869 24.75C257.102 26.9167 257.719 29.4 257.719 32.2C257.719 35 257.085 37.4833 255.819 39.65C254.552 41.8167 252.819 43.5 250.619 44.7C248.452 45.8667 246.052 46.45 243.419 46.45ZM243.419 41.5C244.885 41.5 246.252 41.15 247.519 40.45C248.819 39.75 249.869 38.7 250.669 37.3C251.469 35.9 251.869 34.2 251.869 32.2C251.869 30.2 251.485 28.5167 250.719 27.15C249.952 25.75 248.935 24.7 247.669 24C246.402 23.3 245.035 22.95 243.569 22.95C242.102 22.95 240.735 23.3 239.469 24C238.235 24.7 237.252 25.75 236.519 27.15C235.785 28.5167 235.419 30.2 235.419 32.2C235.419 35.1667 236.169 37.4667 237.669 39.1C239.202 40.7 241.119 41.5 243.419 41.5ZM268.054 22.45C268.887 21.05 269.987 19.9667 271.354 19.2C272.754 18.4 274.404 18 276.304 18V23.9H274.854C272.62 23.9 270.92 24.4667 269.754 25.6C268.62 26.7333 268.054 28.7 268.054 31.5V46H262.354V18.45H268.054V22.45ZM305.793 31.55C305.793 32.5833 305.726 33.5167 305.593 34.35H284.543C284.71 36.55 285.526 38.3167 286.993 39.65C288.46 40.9833 290.26 41.65 292.393 41.65C295.46 41.65 297.626 40.3667 298.893 37.8H305.043C304.21 40.3333 302.693 42.4167 300.493 44.05C298.326 45.65 295.626 46.45 292.393 46.45C289.76 46.45 287.393 45.8667 285.293 44.7C283.226 43.5 281.593 41.8333 280.393 39.7C279.226 37.5333 278.643 35.0333 278.643 32.2C278.643 29.3667 279.21 26.8833 280.343 24.75C281.51 22.5833 283.126 20.9167 285.193 19.75C287.293 18.5833 289.693 18 292.393 18C294.993 18 297.31 18.5667 299.343 19.7C301.376 20.8333 302.96 22.4333 304.093 24.5C305.226 26.5333 305.793 28.8833 305.793 31.55ZM299.843 29.75C299.81 27.65 299.06 25.9667 297.593 24.7C296.126 23.4333 294.31 22.8 292.143 22.8C290.176 22.8 288.493 23.4333 287.093 24.7C285.693 25.9333 284.86 27.6167 284.593 29.75H299.843Z"/>
</mask>
<path d="M16.2996 46.35C13.9663 46.35 11.8663 45.95 9.99961 45.15C8.13294 44.3167 6.66628 43.15 5.59961 41.65C4.53294 40.15 3.99961 38.4 3.99961 36.4H10.0996C10.2329 37.9 10.8163 39.1333 11.8496 40.1C12.9163 41.0667 14.3996 41.55 16.2996 41.55C18.2663 41.55 19.7996 41.0833 20.8996 40.15C21.9996 39.1833 22.5496 37.95 22.5496 36.45C22.5496 35.2833 22.1996 34.3333 21.4996 33.6C20.8329 32.8667 19.9829 32.3 18.9496 31.9C17.9496 31.5 16.5496 31.0667 14.7496 30.6C12.4829 30 10.6329 29.4 9.19961 28.8C7.79961 28.1667 6.59961 27.2 5.59961 25.9C4.59961 24.6 4.09961 22.8667 4.09961 20.7C4.09961 18.7 4.59961 16.95 5.59961 15.45C6.59961 13.95 7.99961 12.8 9.79961 12C11.5996 11.2 13.6829 10.8 16.0496 10.8C19.4163 10.8 22.1663 11.65 24.2996 13.35C26.4663 15.0167 27.6663 17.3167 27.8996 20.25H21.5996C21.4996 18.9833 20.8996 17.9 19.7996 17C18.6996 16.1 17.2496 15.65 15.4496 15.65C13.8163 15.65 12.4829 16.0667 11.4496 16.9C10.4163 17.7333 9.89961 18.9333 9.89961 20.5C9.89961 21.5667 10.2163 22.45 10.8496 23.15C11.5163 23.8167 12.3496 24.35 13.3496 24.75C14.3496 25.15 15.7163 25.5833 17.4496 26.05C19.7496 26.6833 21.6163 27.3167 23.0496 27.95C24.5163 28.5833 25.7496 29.5667 26.7496 30.9C27.7829 32.2 28.2996 33.95 28.2996 36.15C28.2996 37.9167 27.8163 39.5833 26.8496 41.15C25.9163 42.7167 24.5329 43.9833 22.6996 44.95C20.8996 45.8833 18.7663 46.35 16.2996 46.35ZM32.1254 32.1C32.1254 29.3333 32.6921 26.8833 33.8254 24.75C34.9921 22.6167 36.5587 20.9667 38.5254 19.8C40.5254 18.6 42.7254 18 45.1254 18C47.2921 18 49.1754 18.4333 50.7754 19.3C52.4087 20.1333 53.7087 21.1833 54.6754 22.45V18.45H60.4254V46H54.6754V41.9C53.7087 43.2 52.3921 44.2833 50.7254 45.15C49.0587 46.0167 47.1587 46.45 45.0254 46.45C42.6587 46.45 40.4921 45.85 38.5254 44.65C36.5587 43.4167 34.9921 41.7167 33.8254 39.55C32.6921 37.35 32.1254 34.8667 32.1254 32.1ZM54.6754 32.2C54.6754 30.3 54.2754 28.65 53.4754 27.25C52.7087 25.85 51.6921 24.7833 50.4254 24.05C49.1587 23.3167 47.7921 22.95 46.3254 22.95C44.8587 22.95 43.4921 23.3167 42.2254 24.05C40.9587 24.75 39.9254 25.8 39.1254 27.2C38.3587 28.5667 37.9754 30.2 37.9754 32.1C37.9754 34 38.3587 35.6667 39.1254 37.1C39.9254 38.5333 40.9587 39.6333 42.2254 40.4C43.5254 41.1333 44.8921 41.5 46.3254 41.5C47.7921 41.5 49.1587 41.1333 50.4254 40.4C51.6921 39.6667 52.7087 38.6 53.4754 37.2C54.2754 35.7667 54.6754 34.1 54.6754 32.2ZM72.6121 22.5C73.5788 21.2333 74.8954 20.1667 76.5621 19.3C78.2288 18.4333 80.1121 18 82.2121 18C84.6121 18 86.7954 18.6 88.7621 19.8C90.7621 20.9667 92.3288 22.6167 93.4621 24.75C94.5954 26.8833 95.1621 29.3333 95.1621 32.1C95.1621 34.8667 94.5954 37.35 93.4621 39.55C92.3288 41.7167 90.7621 43.4167 88.7621 44.65C86.7954 45.85 84.6121 46.45 82.2121 46.45C80.1121 46.45 78.2454 46.0333 76.6121 45.2C74.9788 44.3333 73.6454 43.2667 72.6121 42V59.1H66.9121V18.45H72.6121V22.5ZM89.3621 32.1C89.3621 30.2 88.9621 28.5667 88.1621 27.2C87.3954 25.8 86.3621 24.75 85.0621 24.05C83.7954 23.3167 82.4288 22.95 80.9621 22.95C79.5288 22.95 78.1621 23.3167 76.8621 24.05C75.5954 24.7833 74.5621 25.85 73.7621 27.25C72.9954 28.65 72.6121 30.3 72.6121 32.2C72.6121 34.1 72.9954 35.7667 73.7621 37.2C74.5621 38.6 75.5954 39.6667 76.8621 40.4C78.1621 41.1333 79.5288 41.5 80.9621 41.5C82.4288 41.5 83.7954 41.1333 85.0621 40.4C86.3621 39.6333 87.3954 38.5333 88.1621 37.1C88.9621 35.6667 89.3621 34 89.3621 32.1ZM102.699 14.8C101.665 14.8 100.799 14.45 100.099 13.75C99.3988 13.05 99.0488 12.1833 99.0488 11.15C99.0488 10.1167 99.3988 9.25 100.099 8.55C100.799 7.85 101.665 7.5 102.699 7.5C103.699 7.5 104.549 7.85 105.249 8.55C105.949 9.25 106.299 10.1167 106.299 11.15C106.299 12.1833 105.949 13.05 105.249 13.75C104.549 14.45 103.699 14.8 102.699 14.8ZM105.499 18.45V46H99.7988V18.45H105.499ZM137.232 31.55C137.232 32.5833 137.166 33.5167 137.032 34.35H115.982C116.149 36.55 116.966 38.3167 118.432 39.65C119.899 40.9833 121.699 41.65 123.832 41.65C126.899 41.65 129.066 40.3667 130.332 37.8H136.482C135.649 40.3333 134.132 42.4167 131.932 44.05C129.766 45.65 127.066 46.45 123.832 46.45C121.199 46.45 118.832 45.8667 116.732 44.7C114.666 43.5 113.032 41.8333 111.832 39.7C110.666 37.5333 110.082 35.0333 110.082 32.2C110.082 29.3667 110.649 26.8833 111.782 24.75C112.949 22.5833 114.566 20.9167 116.632 19.75C118.732 18.5833 121.132 18 123.832 18C126.432 18 128.749 18.5667 130.782 19.7C132.816 20.8333 134.399 22.4333 135.532 24.5C136.666 26.5333 137.232 28.8833 137.232 31.55ZM131.282 29.75C131.249 27.65 130.499 25.9667 129.032 24.7C127.566 23.4333 125.749 22.8 123.582 22.8C121.616 22.8 119.932 23.4333 118.532 24.7C117.132 25.9333 116.299 27.6167 116.032 29.75H131.282ZM155.742 18C157.908 18 159.842 18.45 161.542 19.35C163.275 20.25 164.625 21.5833 165.592 23.35C166.558 25.1167 167.042 27.25 167.042 29.75V46H161.392V30.6C161.392 28.1333 160.775 26.25 159.542 24.95C158.308 23.6167 156.625 22.95 154.492 22.95C152.358 22.95 150.658 23.6167 149.392 24.95C148.158 26.25 147.542 28.1333 147.542 30.6V46H141.842V18.45H147.542V21.6C148.475 20.4667 149.658 19.5833 151.092 18.95C152.558 18.3167 154.108 18 155.742 18Z" fill="white"/>
<path d="M184.763 46.35C182.429 46.35 180.329 45.95 178.463 45.15C176.596 44.3167 175.129 43.15 174.063 41.65C172.996 40.15 172.463 38.4 172.463 36.4H178.563C178.696 37.9 179.279 39.1333 180.313 40.1C181.379 41.0667 182.863 41.55 184.763 41.55C186.729 41.55 188.263 41.0833 189.363 40.15C190.463 39.1833 191.013 37.95 191.013 36.45C191.013 35.2833 190.663 34.3333 189.963 33.6C189.296 32.8667 188.446 32.3 187.413 31.9C186.413 31.5 185.013 31.0667 183.213 30.6C180.946 30 179.096 29.4 177.663 28.8C176.263 28.1667 175.063 27.2 174.063 25.9C173.063 24.6 172.563 22.8667 172.563 20.7C172.563 18.7 173.063 16.95 174.063 15.45C175.063 13.95 176.463 12.8 178.263 12C180.063 11.2 182.146 10.8 184.513 10.8C187.879 10.8 190.629 11.65 192.763 13.35C194.929 15.0167 196.129 17.3167 196.363 20.25H190.063C189.963 18.9833 189.363 17.9 188.263 17C187.163 16.1 185.713 15.65 183.913 15.65C182.279 15.65 180.946 16.0667 179.913 16.9C178.879 17.7333 178.363 18.9333 178.363 20.5C178.363 21.5667 178.679 22.45 179.313 23.15C179.979 23.8167 180.813 24.35 181.813 24.75C182.813 25.15 184.179 25.5833 185.913 26.05C188.213 26.6833 190.079 27.3167 191.513 27.95C192.979 28.5833 194.213 29.5667 195.213 30.9C196.246 32.2 196.763 33.95 196.763 36.15C196.763 37.9167 196.279 39.5833 195.313 41.15C194.379 42.7167 192.996 43.9833 191.163 44.95C189.363 45.8833 187.229 46.35 184.763 46.35ZM200.588 32.2C200.588 29.3667 201.155 26.8833 202.288 24.75C203.455 22.5833 205.055 20.9167 207.088 19.75C209.122 18.5833 211.455 18 214.088 18C217.422 18 220.172 18.8 222.338 20.4C224.538 21.9667 226.022 24.2167 226.788 27.15H220.638C220.138 25.7833 219.338 24.7167 218.238 23.95C217.138 23.1833 215.755 22.8 214.088 22.8C211.755 22.8 209.888 23.6333 208.488 25.3C207.122 26.9333 206.438 29.2333 206.438 32.2C206.438 35.1667 207.122 37.4833 208.488 39.15C209.888 40.8167 211.755 41.65 214.088 41.65C217.388 41.65 219.572 40.2 220.638 37.3H226.788C225.988 40.1 224.488 42.3333 222.288 44C220.088 45.6333 217.355 46.45 214.088 46.45C211.455 46.45 209.122 45.8667 207.088 44.7C205.055 43.5 203.455 41.8333 202.288 39.7C201.155 37.5333 200.588 35.0333 200.588 32.2ZM243.419 46.45C240.819 46.45 238.469 45.8667 236.369 44.7C234.269 43.5 232.619 41.8333 231.419 39.7C230.219 37.5333 229.619 35.0333 229.619 32.2C229.619 29.4 230.235 26.9167 231.469 24.75C232.702 22.5833 234.385 20.9167 236.519 19.75C238.652 18.5833 241.035 18 243.669 18C246.302 18 248.685 18.5833 250.819 19.75C252.952 20.9167 254.635 22.5833 255.869 24.75C257.102 26.9167 257.719 29.4 257.719 32.2C257.719 35 257.085 37.4833 255.819 39.65C254.552 41.8167 252.819 43.5 250.619 44.7C248.452 45.8667 246.052 46.45 243.419 46.45ZM243.419 41.5C244.885 41.5 246.252 41.15 247.519 40.45C248.819 39.75 249.869 38.7 250.669 37.3C251.469 35.9 251.869 34.2 251.869 32.2C251.869 30.2 251.485 28.5167 250.719 27.15C249.952 25.75 248.935 24.7 247.669 24C246.402 23.3 245.035 22.95 243.569 22.95C242.102 22.95 240.735 23.3 239.469 24C238.235 24.7 237.252 25.75 236.519 27.15C235.785 28.5167 235.419 30.2 235.419 32.2C235.419 35.1667 236.169 37.4667 237.669 39.1C239.202 40.7 241.119 41.5 243.419 41.5ZM268.054 22.45C268.887 21.05 269.987 19.9667 271.354 19.2C272.754 18.4 274.404 18 276.304 18V23.9H274.854C272.62 23.9 270.92 24.4667 269.754 25.6C268.62 26.7333 268.054 28.7 268.054 31.5V46H262.354V18.45H268.054V22.45ZM305.793 31.55C305.793 32.5833 305.726 33.5167 305.593 34.35H284.543C284.71 36.55 285.526 38.3167 286.993 39.65C288.46 40.9833 290.26 41.65 292.393 41.65C295.46 41.65 297.626 40.3667 298.893 37.8H305.043C304.21 40.3333 302.693 42.4167 300.493 44.05C298.326 45.65 295.626 46.45 292.393 46.45C289.76 46.45 287.393 45.8667 285.293 44.7C283.226 43.5 281.593 41.8333 280.393 39.7C279.226 37.5333 278.643 35.0333 278.643 32.2C278.643 29.3667 279.21 26.8833 280.343 24.75C281.51 22.5833 283.126 20.9167 285.193 19.75C287.293 18.5833 289.693 18 292.393 18C294.993 18 297.31 18.5667 299.343 19.7C301.376 20.8333 302.96 22.4333 304.093 24.5C305.226 26.5333 305.793 28.8833 305.793 31.55ZM299.843 29.75C299.81 27.65 299.06 25.9667 297.593 24.7C296.126 23.4333 294.31 22.8 292.143 22.8C290.176 22.8 288.493 23.4333 287.093 24.7C285.693 25.9333 284.86 27.6167 284.593 29.75H299.843Z" fill="#FF8541"/>
<path d="M9.99961 45.15L9.59196 46.0631L9.5988 46.0662L9.60569 46.0691L9.99961 45.15ZM5.59961 41.65L6.41456 41.0705V41.0705L5.59961 41.65ZM3.99961 36.4V35.4H2.99961V36.4H3.99961ZM10.0996 36.4L11.0957 36.3115L11.0147 35.4H10.0996V36.4ZM11.8496 40.1L11.1665 40.8303L11.1722 40.8357L11.1781 40.841L11.8496 40.1ZM20.8996 40.15L21.5466 40.9125L21.5532 40.9069L21.5597 40.9012L20.8996 40.15ZM21.4996 33.6L20.7597 34.2727L20.7679 34.2817L20.7763 34.2905L21.4996 33.6ZM18.9496 31.9L18.5782 32.8285L18.5886 32.8326L18.9496 31.9ZM14.7496 30.6L14.4937 31.5667L14.4986 31.568L14.7496 30.6ZM9.19961 28.8L8.78744 29.7111L8.80038 29.717L8.81347 29.7224L9.19961 28.8ZM5.59961 15.45L6.43166 16.0047V16.0047L5.59961 15.45ZM9.79961 12L10.2057 12.9138V12.9138L9.79961 12ZM24.2996 13.35L23.6764 14.1321L23.6831 14.1374L23.6899 14.1426L24.2996 13.35ZM27.8996 20.25V21.25H28.9823L28.8965 20.1707L27.8996 20.25ZM21.5996 20.25L20.6027 20.3287L20.6754 21.25H21.5996V20.25ZM11.4496 16.9L12.0774 17.6784L12.0774 17.6784L11.4496 16.9ZM10.8496 23.15L10.1081 23.8209L10.1248 23.8394L10.1425 23.8571L10.8496 23.15ZM17.4496 26.05L17.7151 25.0859L17.7096 25.0844L17.4496 26.05ZM23.0496 27.95L22.6454 28.8647L22.6532 28.8681L23.0496 27.95ZM26.7496 30.9L25.9496 31.5L25.958 31.5112L25.9668 31.5222L26.7496 30.9ZM26.8496 41.15L25.9986 40.6249L25.9945 40.6315L25.9905 40.6382L26.8496 41.15ZM22.6996 44.95L23.1599 45.8378L23.166 45.8346L22.6996 44.95ZM16.2996 46.35V45.35C14.0817 45.35 12.1185 44.9701 10.3935 44.2309L9.99961 45.15L9.60569 46.0691C11.614 46.9299 13.8509 47.35 16.2996 47.35V46.35ZM9.99961 45.15L10.4073 44.2369C8.6852 43.4681 7.36655 42.4092 6.41456 41.0705L5.59961 41.65L4.78465 42.2295C5.96601 43.8908 7.58068 45.1652 9.59196 46.0631L9.99961 45.15ZM5.59961 41.65L6.41456 41.0705C5.47879 39.7545 4.99961 38.2112 4.99961 36.4H3.99961H2.99961C2.99961 38.5888 3.58709 40.5455 4.78465 42.2295L5.59961 41.65ZM3.99961 36.4V37.4H10.0996V36.4V35.4H3.99961V36.4ZM10.0996 36.4L9.10354 36.4885C9.25713 38.2165 9.9412 39.6841 11.1665 40.8303L11.8496 40.1L12.5328 39.3697C11.6914 38.5826 11.2088 37.5835 11.0957 36.3115L10.0996 36.4ZM11.8496 40.1L11.1781 40.841C12.4811 42.0218 14.2325 42.55 16.2996 42.55V41.55V40.55C14.5667 40.55 13.3515 40.1115 12.5211 39.359L11.8496 40.1ZM16.2996 41.55V42.55C18.4171 42.55 20.2096 42.047 21.5466 40.9125L20.8996 40.15L20.2526 39.3875C19.3897 40.1197 18.1154 40.55 16.2996 40.55V41.55ZM20.8996 40.15L21.5597 40.9012C22.8817 39.7394 23.5496 38.2296 23.5496 36.45H22.5496H21.5496C21.5496 37.6704 21.1175 38.6272 20.2395 39.3988L20.8996 40.15ZM22.5496 36.45H23.5496C23.5496 35.0679 23.1274 33.857 22.223 32.9095L21.4996 33.6L20.7763 34.2905C21.2718 34.8096 21.5496 35.4988 21.5496 36.45H22.5496ZM21.4996 33.6L22.2395 32.9273C21.4567 32.0662 20.4714 31.4168 19.3106 30.9674L18.9496 31.9L18.5886 32.8326C19.4944 33.1832 20.2092 33.6672 20.7597 34.2727L21.4996 33.6ZM18.9496 31.9L19.321 30.9715C18.2635 30.5485 16.8167 30.1029 15.0006 29.632L14.7496 30.6L14.4986 31.568C16.2825 32.0305 17.6357 32.4515 18.5782 32.8285L18.9496 31.9ZM14.7496 30.6L15.0055 29.6333C12.7633 29.0398 10.9612 28.4533 9.58575 27.8776L9.19961 28.8L8.81347 29.7224C10.3046 30.3467 12.2026 30.9602 14.4937 31.5667L14.7496 30.6ZM9.19961 28.8L9.61178 27.8889C8.37147 27.3278 7.29903 26.4691 6.39223 25.2903L5.59961 25.9L4.80699 26.5097C5.90018 27.9309 7.22775 29.0055 8.78744 29.7111L9.19961 28.8ZM5.59961 25.9L6.39223 25.2903C5.56426 24.2139 5.09961 22.7169 5.09961 20.7H4.09961H3.09961C3.09961 23.0165 3.63495 24.9861 4.80699 26.5097L5.59961 25.9ZM4.09961 20.7H5.09961C5.09961 18.875 5.55299 17.3227 6.43166 16.0047L5.59961 15.45L4.76756 14.8953C3.64623 16.5773 3.09961 18.525 3.09961 20.7H4.09961ZM5.59961 15.45L6.43166 16.0047C7.31691 14.6768 8.56222 13.6443 10.2057 12.9138L9.79961 12L9.39347 11.0862C7.437 11.9557 5.88231 13.2232 4.76756 14.8953L5.59961 15.45ZM9.79961 12L10.2057 12.9138C11.8548 12.1809 13.7952 11.8 16.0496 11.8V10.8V9.8C13.5707 9.8 11.3444 10.2191 9.39347 11.0862L9.79961 12ZM16.0496 10.8V11.8C19.2443 11.8 21.7585 12.6037 23.6764 14.1321L24.2996 13.35L24.9228 12.5679C22.5741 10.6963 19.5882 9.8 16.0496 9.8V10.8ZM24.2996 13.35L23.6899 14.1426C25.6139 15.6226 26.6899 17.6536 26.9028 20.3293L27.8996 20.25L28.8965 20.1707C28.6426 16.9798 27.3186 14.4107 24.9093 12.5574L24.2996 13.35ZM27.8996 20.25V19.25H21.5996V20.25V21.25H27.8996V20.25ZM21.5996 20.25L22.5965 20.1713C22.4724 18.5995 21.7162 17.2761 20.4328 16.226L19.7996 17L19.1664 17.774C20.083 18.5239 20.5268 19.3672 20.6027 20.3287L21.5996 20.25ZM19.7996 17L20.4328 16.226C19.1109 15.1445 17.4176 14.65 15.4496 14.65V15.65V16.65C17.0816 16.65 18.2883 17.0555 19.1664 17.774L19.7996 17ZM15.4496 15.65V14.65C13.642 14.65 12.071 15.1142 10.8219 16.1216L11.4496 16.9L12.0774 17.6784C12.8949 17.0191 13.9905 16.65 15.4496 16.65V15.65ZM11.4496 16.9L10.8219 16.1216C9.50957 17.1799 8.89961 18.6917 8.89961 20.5H9.89961H10.8996C10.8996 19.175 11.323 18.2868 12.0774 17.6784L11.4496 16.9ZM9.89961 20.5H8.89961C8.89961 21.78 9.28655 22.9129 10.1081 23.8209L10.8496 23.15L11.5911 22.4791C11.146 21.9871 10.8996 21.3533 10.8996 20.5H9.89961ZM10.8496 23.15L10.1425 23.8571C10.9176 24.6322 11.8703 25.2353 12.9782 25.6785L13.3496 24.75L13.721 23.8215C12.8289 23.4647 12.1149 23.0011 11.5567 22.4429L10.8496 23.15ZM13.3496 24.75L12.9782 25.6785C14.0306 26.0994 15.4398 26.5445 17.1896 27.0156L17.4496 26.05L17.7096 25.0844C15.9928 24.6222 14.6687 24.2006 13.721 23.8215L13.3496 24.75ZM17.4496 26.05L17.1841 27.0141C19.4585 27.6404 21.2738 28.2586 22.6454 28.8647L23.0496 27.95L23.4538 27.0353C21.9587 26.3747 20.0407 25.7263 17.7151 25.0859L17.4496 26.05ZM23.0496 27.95L22.6532 28.8681C23.9529 29.4293 25.0494 30.2998 25.9496 31.5L26.7496 30.9L27.5496 30.3C26.4498 28.8336 25.0797 27.7374 23.446 27.0319L23.0496 27.95ZM26.7496 30.9L25.9668 31.5222C26.8197 32.5952 27.2996 34.1024 27.2996 36.15H28.2996H29.2996C29.2996 33.7976 28.7462 31.8048 27.5324 30.2778L26.7496 30.9ZM28.2996 36.15H27.2996C27.2996 37.7232 26.8721 39.2091 25.9986 40.6249L26.8496 41.15L27.7006 41.6751C28.7604 39.9576 29.2996 38.1101 29.2996 36.15H28.2996ZM26.8496 41.15L25.9905 40.6382C25.1636 42.0262 23.9266 43.1726 22.2332 44.0654L22.6996 44.95L23.166 45.8346C25.1393 44.7941 26.6689 43.4072 27.7087 41.6618L26.8496 41.15ZM22.6996 44.95L22.2393 44.0622C20.6091 44.9075 18.6403 45.35 16.2996 45.35V46.35V47.35C18.8922 47.35 21.1901 46.8591 23.1599 45.8378L22.6996 44.95ZM33.8254 24.75L32.948 24.2702L32.9423 24.2808L33.8254 24.75ZM38.5254 19.8L39.0356 20.6601L39.0399 20.6575L38.5254 19.8ZM50.7754 19.3L50.2991 20.1793L50.3099 20.1852L50.3209 20.1908L50.7754 19.3ZM54.6754 22.45L53.8804 23.0567L55.6754 25.4087V22.45H54.6754ZM54.6754 18.45V17.45H53.6754V18.45H54.6754ZM60.4254 18.45H61.4254V17.45H60.4254V18.45ZM60.4254 46V47H61.4254V46H60.4254ZM54.6754 46H53.6754V47H54.6754V46ZM54.6754 41.9H55.6754V38.8793L53.8729 41.3033L54.6754 41.9ZM50.7254 45.15L50.264 44.2628V44.2628L50.7254 45.15ZM38.5254 44.65L37.9941 45.4973L38.0045 45.5036L38.5254 44.65ZM33.8254 39.55L32.9364 40.008L32.9406 40.0161L32.9449 40.0241L33.8254 39.55ZM53.4754 27.25L52.5983 27.7303L52.6026 27.7383L52.6071 27.7461L53.4754 27.25ZM50.4254 24.05L49.9244 24.9154V24.9154L50.4254 24.05ZM42.2254 24.05L42.7091 24.9252L42.7178 24.9204L42.7264 24.9154L42.2254 24.05ZM39.1254 27.2L38.2571 26.7038L38.2532 26.7107L39.1254 27.2ZM39.1254 37.1L38.2436 37.5717L38.2478 37.5795L38.2522 37.5874L39.1254 37.1ZM42.2254 40.4L41.7076 41.2555L41.7207 41.2634L41.7341 41.271L42.2254 40.4ZM50.4254 40.4L50.9264 41.2654V41.2654L50.4254 40.4ZM53.4754 37.2L52.6022 36.7126L52.5983 36.7197L53.4754 37.2ZM32.1254 32.1H33.1254C33.1254 29.473 33.6624 27.1882 34.7085 25.2192L33.8254 24.75L32.9423 24.2808C31.7217 26.5784 31.1254 29.1937 31.1254 32.1H32.1254ZM33.8254 24.75L34.7028 25.2298C35.789 23.2435 37.2331 21.7294 39.0356 20.6601L38.5254 19.8L38.0152 18.9399C35.8844 20.204 34.1951 21.9898 32.948 24.2702L33.8254 24.75ZM38.5254 19.8L39.0399 20.6575C40.8798 19.5535 42.9011 19 45.1254 19V18V17C42.5497 17 40.171 17.6465 38.0109 18.9425L38.5254 19.8ZM45.1254 18V19C47.1574 19 48.8709 19.4057 50.2991 20.1793L50.7754 19.3L51.2517 18.4207C49.4799 17.461 47.4267 17 45.1254 17V18ZM50.7754 19.3L50.3209 20.1908C51.841 20.9663 53.0173 21.9257 53.8804 23.0567L54.6754 22.45L55.4703 21.8433C54.4001 20.441 52.9764 19.3003 51.2299 18.4092L50.7754 19.3ZM54.6754 22.45H55.6754V18.45H54.6754H53.6754V22.45H54.6754ZM54.6754 18.45V19.45H60.4254V18.45V17.45H54.6754V18.45ZM60.4254 18.45H59.4254V46H60.4254H61.4254V18.45H60.4254ZM60.4254 46V45H54.6754V46V47H60.4254V46ZM54.6754 46H55.6754V41.9H54.6754H53.6754V46H54.6754ZM54.6754 41.9L53.8729 41.3033C53.0099 42.4639 51.8179 43.4548 50.264 44.2628L50.7254 45.15L51.1867 46.0372C52.9662 45.1119 54.4076 43.9361 55.4779 42.4967L54.6754 41.9ZM50.7254 45.15L50.264 44.2628C48.7582 45.0458 47.0201 45.45 45.0254 45.45V46.45V47.45C47.2973 47.45 49.3593 46.9875 51.1867 46.0372L50.7254 45.15ZM45.0254 46.45V45.45C42.8372 45.45 40.8516 44.8979 39.0463 43.7964L38.5254 44.65L38.0045 45.5036C40.1325 46.8021 42.4802 47.45 45.0254 47.45V46.45ZM38.5254 44.65L39.0567 43.8028C37.2456 42.6671 35.7955 41.0996 34.7059 39.0759L33.8254 39.55L32.9449 40.0241C34.1886 42.3338 35.8718 44.1663 37.9941 45.4972L38.5254 44.65ZM33.8254 39.55L34.7144 39.092C33.6622 37.0497 33.1254 34.7264 33.1254 32.1H32.1254H31.1254C31.1254 35.0069 31.7219 37.6503 32.9364 40.008L33.8254 39.55ZM54.6754 32.2H55.6754C55.6754 30.1572 55.2442 28.3299 54.3436 26.7539L53.4754 27.25L52.6071 27.7461C53.3065 28.9701 53.6754 30.4428 53.6754 32.2H54.6754ZM53.4754 27.25L54.3525 26.7697C53.5062 25.2244 52.3655 24.0177 50.9264 23.1846L50.4254 24.05L49.9244 24.9154C51.0186 25.549 51.9112 26.4756 52.5983 27.7303L53.4754 27.25ZM50.4254 24.05L50.9264 23.1846C49.5072 22.3629 47.9676 21.95 46.3254 21.95V22.95V23.95C47.6165 23.95 48.8103 24.2704 49.9244 24.9154L50.4254 24.05ZM46.3254 22.95V21.95C44.6832 21.95 43.1436 22.3629 41.7244 23.1846L42.2254 24.05L42.7264 24.9154C43.8405 24.2704 45.0343 23.95 46.3254 23.95V22.95ZM42.2254 24.05L41.7417 23.1748C40.2967 23.9733 39.1375 25.1633 38.2571 26.7039L39.1254 27.2L39.9936 27.6961C40.7133 26.4367 41.6208 25.5267 42.7091 24.9252L42.2254 24.05ZM39.1254 27.2L38.2532 26.7107C37.3866 28.2556 36.9754 30.0649 36.9754 32.1H37.9754H38.9754C38.9754 30.3351 39.3308 28.8778 39.9975 27.6892L39.1254 27.2ZM37.9754 32.1H36.9754C36.9754 34.1367 37.3872 35.9705 38.2436 37.5717L39.1254 37.1L40.0072 36.6283C39.3303 35.3628 38.9754 33.8633 38.9754 32.1H37.9754ZM39.1254 37.1L38.2522 37.5874C39.1273 39.1553 40.2769 40.3895 41.7076 41.2555L42.2254 40.4L42.7432 39.5445C41.6406 38.8771 40.7235 37.9114 39.9986 36.6126L39.1254 37.1ZM42.2254 40.4L41.7341 41.271C43.1776 42.0853 44.7127 42.5 46.3254 42.5V41.5V40.5C45.0715 40.5 43.8732 40.1814 42.7167 39.529L42.2254 40.4ZM46.3254 41.5V42.5C47.9676 42.5 49.5072 42.0871 50.9264 41.2654L50.4254 40.4L49.9244 39.5346C48.8103 40.1796 47.6165 40.5 46.3254 40.5V41.5ZM50.4254 40.4L50.9264 41.2654C52.3655 40.4323 53.5062 39.2256 54.3525 37.6803L53.4754 37.2L52.5983 36.7197C51.9112 37.9744 51.0186 38.901 49.9244 39.5346L50.4254 40.4ZM53.4754 37.2L54.3486 37.6874C55.244 36.083 55.6754 34.2435 55.6754 32.2H54.6754H53.6754C53.6754 33.9565 53.3068 35.4503 52.6022 36.7126L53.4754 37.2ZM72.6121 22.5H71.6121V25.4587L73.4071 23.1067L72.6121 22.5ZM76.5621 19.3L76.1008 18.4128V18.4128L76.5621 19.3ZM88.7621 19.8L88.2412 20.6536L88.2497 20.6588L88.2582 20.6638L88.7621 19.8ZM93.4621 24.75L92.579 25.2192V25.2192L93.4621 24.75ZM93.4621 39.55L94.3482 40.0135L94.3511 40.008L93.4621 39.55ZM88.7621 44.65L89.283 45.5037L89.287 45.5012L88.7621 44.65ZM76.6121 45.2L76.1434 46.0833L76.1505 46.0871L76.1576 46.0908L76.6121 45.2ZM72.6121 42L73.387 41.3679L71.6121 39.1922V42H72.6121ZM72.6121 59.1V60.1H73.6121V59.1H72.6121ZM66.9121 59.1H65.9121V60.1H66.9121V59.1ZM66.9121 18.45V17.45H65.9121V18.45H66.9121ZM72.6121 18.45H73.6121V17.45H72.6121V18.45ZM88.1621 27.2L87.285 27.6803L87.2919 27.6928L87.2991 27.7052L88.1621 27.2ZM85.0621 24.05L84.5611 24.9154L84.5744 24.9232L84.588 24.9305L85.0621 24.05ZM76.8621 24.05L76.3708 23.179L76.3611 23.1846L76.8621 24.05ZM73.7621 27.25L72.8939 26.7539L72.8894 26.7617L72.885 26.7697L73.7621 27.25ZM73.7621 37.2L72.8803 37.6716L72.8869 37.684L72.8939 37.6961L73.7621 37.2ZM76.8621 40.4L76.361 41.2655L76.3708 41.271L76.8621 40.4ZM85.0621 40.4L85.5632 41.2655L85.5701 41.2614L85.0621 40.4ZM88.1621 37.1L87.2889 36.6126L87.2845 36.6205L87.2803 36.6283L88.1621 37.1ZM72.6121 22.5L73.4071 23.1067C74.2699 21.976 75.4641 20.9981 77.0235 20.1872L76.5621 19.3L76.1008 18.4128C74.3268 19.3353 72.8876 20.4907 71.8172 21.8933L72.6121 22.5ZM76.5621 19.3L77.0235 20.1872C78.5315 19.403 80.2535 19 82.2121 19V18V17C79.9707 17 77.926 17.4636 76.1008 18.4128L76.5621 19.3ZM82.2121 18V19C84.4364 19 86.4382 19.5535 88.2412 20.6536L88.7621 19.8L89.283 18.9464C87.1527 17.6465 84.7878 17 82.2121 17V18ZM88.7621 19.8L88.2582 20.6638C90.0904 21.7326 91.529 23.2426 92.579 25.2192L93.4621 24.75L94.3452 24.2808C93.1286 21.9907 91.4338 20.2008 89.266 18.9362L88.7621 19.8ZM93.4621 24.75L92.579 25.2192C93.6251 27.1882 94.1621 29.473 94.1621 32.1H95.1621H96.1621C96.1621 29.1937 95.5658 26.5784 94.3452 24.2808L93.4621 24.75ZM95.1621 32.1H94.1621C94.1621 34.7264 93.6253 37.0497 92.5731 39.092L93.4621 39.55L94.3511 40.008C95.5656 37.6503 96.1621 35.0069 96.1621 32.1H95.1621ZM93.4621 39.55L92.576 39.0865C91.5225 41.1006 90.0778 42.6638 88.2372 43.7988L88.7621 44.65L89.287 45.5012C91.4464 44.1695 93.1351 42.3327 94.3482 40.0135L93.4621 39.55ZM88.7621 44.65L88.2412 43.7964C86.4382 44.8965 84.4364 45.45 82.2121 45.45V46.45V47.45C84.7878 47.45 87.1527 46.8035 89.283 45.5036L88.7621 44.65ZM82.2121 46.45V45.45C80.247 45.45 78.54 45.061 77.0666 44.3092L76.6121 45.2L76.1576 46.0908C77.9509 47.0057 79.9772 47.45 82.2121 47.45V46.45ZM76.6121 45.2L77.0808 44.3167C75.5499 43.5043 74.3257 42.5185 73.387 41.3679L72.6121 42L71.8372 42.6321C72.9652 44.0148 74.4077 45.1624 76.1434 46.0833L76.6121 45.2ZM72.6121 42H71.6121V59.1H72.6121H73.6121V42H72.6121ZM72.6121 59.1V58.1H66.9121V59.1V60.1H72.6121V59.1ZM66.9121 59.1H67.9121V18.45H66.9121H65.9121V59.1H66.9121ZM66.9121 18.45V19.45H72.6121V18.45V17.45H66.9121V18.45ZM72.6121 18.45H71.6121V22.5H72.6121H73.6121V18.45H72.6121ZM89.3621 32.1H90.3621C90.3621 30.058 89.9312 28.2428 89.0251 26.6948L88.1621 27.2L87.2991 27.7052C87.993 28.8906 88.3621 30.342 88.3621 32.1H89.3621ZM88.1621 27.2L89.0392 26.7197C88.1876 25.1645 87.0202 23.9686 85.5362 23.1695L85.0621 24.05L84.588 24.9305C85.704 25.5314 86.6033 26.4355 87.285 27.6803L88.1621 27.2ZM85.0621 24.05L85.5631 23.1846C84.1439 22.3629 82.6043 21.95 80.9621 21.95V22.95V23.95C82.2532 23.95 83.447 24.2704 84.5611 24.9154L85.0621 24.05ZM80.9621 22.95V21.95C79.3494 21.95 77.8143 22.3647 76.3708 23.179L76.8621 24.05L77.3534 24.921C78.5099 24.2686 79.7082 23.95 80.9621 23.95V22.95ZM76.8621 24.05L76.3611 23.1846C74.9263 24.0152 73.7724 25.2165 72.8939 26.7539L73.7621 27.25L74.6304 27.7461C75.3519 26.4835 76.2646 25.5514 77.3631 24.9154L76.8621 24.05ZM73.7621 27.25L72.885 26.7697C72.0237 28.3426 71.6121 30.164 71.6121 32.2H72.6121H73.6121C73.6121 30.436 73.9672 28.9574 74.6392 27.7303L73.7621 27.25ZM72.6121 32.2H71.6121C71.6121 34.2367 72.0239 36.0705 72.8803 37.6716L73.7621 37.2L74.6439 36.7283C73.967 35.4628 73.6121 33.9633 73.6121 32.2H72.6121ZM73.7621 37.2L72.8939 37.6961C73.7723 39.2335 74.9263 40.4348 76.3611 41.2654L76.8621 40.4L77.3631 39.5346C76.2646 38.8986 75.3519 37.9665 74.6304 36.7039L73.7621 37.2ZM76.8621 40.4L76.3708 41.271C77.8143 42.0853 79.3494 42.5 80.9621 42.5V41.5V40.5C79.7082 40.5 78.5099 40.1814 77.3534 39.529L76.8621 40.4ZM80.9621 41.5V42.5C82.6043 42.5 84.1439 42.0871 85.5631 41.2654L85.0621 40.4L84.5611 39.5346C83.447 40.1796 82.2532 40.5 80.9621 40.5V41.5ZM85.0621 40.4L85.5701 41.2614C87.0403 40.3944 88.1976 39.1538 89.0439 37.5717L88.1621 37.1L87.2803 36.6283C86.5932 37.9129 85.684 38.8723 84.5541 39.5386L85.0621 40.4ZM88.1621 37.1L89.0353 37.5874C89.9307 35.983 90.3621 34.1435 90.3621 32.1H89.3621H88.3621C88.3621 33.8565 87.9935 35.3503 87.2889 36.6126L88.1621 37.1ZM100.099 13.75L100.806 13.0429L100.806 13.0429L100.099 13.75ZM100.099 8.55L100.806 9.25711L100.806 9.25711L100.099 8.55ZM105.249 8.55L104.542 9.25711V9.25711L105.249 8.55ZM105.249 13.75L104.542 13.0429V13.0429L105.249 13.75ZM105.499 18.45H106.499V17.45H105.499V18.45ZM105.499 46V47H106.499V46H105.499ZM99.7988 46H98.7988V47H99.7988V46ZM99.7988 18.45V17.45H98.7988V18.45H99.7988ZM102.699 14.8V13.8C101.918 13.8 101.309 13.5464 100.806 13.0429L100.099 13.75L99.3917 14.4571C100.288 15.3536 101.413 15.8 102.699 15.8V14.8ZM100.099 13.75L100.806 13.0429C100.302 12.5394 100.049 11.9311 100.049 11.15H99.0488H98.0488C98.0488 12.4356 98.4952 13.5606 99.3917 14.4571L100.099 13.75ZM99.0488 11.15H100.049C100.049 10.3689 100.302 9.7606 100.806 9.25711L100.099 8.55L99.3917 7.84289C98.4952 8.73939 98.0488 9.8644 98.0488 11.15H99.0488ZM100.099 8.55L100.806 9.25711C101.309 8.75361 101.918 8.5 102.699 8.5V7.5V6.5C101.413 6.5 100.288 6.94639 99.3917 7.84289L100.099 8.55ZM102.699 7.5V8.5C103.437 8.5 104.031 8.74677 104.542 9.25711L105.249 8.55L105.956 7.84289C105.066 6.95323 103.961 6.5 102.699 6.5V7.5ZM105.249 8.55L104.542 9.25711C105.045 9.7606 105.299 10.3689 105.299 11.15H106.299H107.299C107.299 9.8644 106.852 8.73939 105.956 7.84289L105.249 8.55ZM106.299 11.15H105.299C105.299 11.9311 105.045 12.5394 104.542 13.0429L105.249 13.75L105.956 14.4571C106.852 13.5606 107.299 12.4356 107.299 11.15H106.299ZM105.249 13.75L104.542 13.0429C104.031 13.5532 103.437 13.8 102.699 13.8V14.8V15.8C103.961 15.8 105.066 15.3468 105.956 14.4571L105.249 13.75ZM105.499 18.45H104.499V46H105.499H106.499V18.45H105.499ZM105.499 46V45H99.7988V46V47H105.499V46ZM99.7988 46H100.799V18.45H99.7988H98.7988V46H99.7988ZM99.7988 18.45V19.45H105.499V18.45V17.45H99.7988V18.45ZM137.032 34.35V35.35H137.885L138.02 34.508L137.032 34.35ZM115.982 34.35V33.35H114.904L114.985 34.4255L115.982 34.35ZM118.432 39.65L117.76 40.3899V40.3899L118.432 39.65ZM130.332 37.8V36.8H129.711L129.436 37.3575L130.332 37.8ZM136.482 37.8L137.432 38.1125L137.864 36.8H136.482V37.8ZM131.932 44.05L132.526 44.8544L132.529 44.8529L131.932 44.05ZM116.732 44.7L116.23 45.5648L116.238 45.5695L116.247 45.5742L116.732 44.7ZM111.832 39.7L110.952 40.1741L110.956 40.1822L110.961 40.1903L111.832 39.7ZM111.782 24.75L110.902 24.2759L110.899 24.2808L111.782 24.75ZM116.632 19.75L116.147 18.8758L116.141 18.8792L116.632 19.75ZM130.782 19.7L131.269 18.8265V18.8265L130.782 19.7ZM135.532 24.5L134.656 24.9808L134.659 24.9869L135.532 24.5ZM131.282 29.75V30.75H132.298L132.282 29.7341L131.282 29.75ZM129.032 24.7L129.686 23.9432V23.9432L129.032 24.7ZM118.532 24.7L119.194 25.4504L119.203 25.4415L118.532 24.7ZM116.032 29.75L115.04 29.626L114.9 30.75H116.032V29.75ZM137.232 31.55H136.232C136.232 32.5417 136.168 33.421 136.045 34.192L137.032 34.35L138.02 34.508C138.163 33.6124 138.232 32.625 138.232 31.55H137.232ZM137.032 34.35V33.35H115.982V34.35V35.35H137.032V34.35ZM115.982 34.35L114.985 34.4255C115.169 36.849 116.082 38.8647 117.76 40.3899L118.432 39.65L119.105 38.9101C117.849 37.7686 117.129 36.2509 116.98 34.2745L115.982 34.35ZM118.432 39.65L117.76 40.3899C119.425 41.904 121.471 42.65 123.832 42.65V41.65V40.65C121.927 40.65 120.373 40.0626 119.105 38.9101L118.432 39.65ZM123.832 41.65V42.65C125.506 42.65 126.999 42.299 128.267 41.5479C129.539 40.7944 130.522 39.6753 131.229 38.2425L130.332 37.8L129.436 37.3575C128.876 38.4914 128.142 39.2973 127.248 39.8271C126.349 40.3594 125.225 40.65 123.832 40.65V41.65ZM130.332 37.8V38.8H136.482V37.8V36.8H130.332V37.8ZM136.482 37.8L135.533 37.4875C134.766 39.8191 133.375 41.7332 131.336 43.2471L131.932 44.05L132.529 44.8529C134.889 43.1001 136.533 40.8475 137.432 38.1125L136.482 37.8ZM131.932 44.05L131.338 43.2456C129.376 44.6947 126.896 45.45 123.832 45.45V46.45V47.45C127.236 47.45 130.155 46.6053 132.526 44.8544L131.932 44.05ZM123.832 46.45V45.45C121.352 45.45 119.156 44.9022 117.218 43.8258L116.732 44.7L116.247 45.5742C118.509 46.8311 121.046 47.45 123.832 47.45V46.45ZM116.732 44.7L117.235 43.8352C115.326 42.7271 113.819 41.1914 112.704 39.2097L111.832 39.7L110.961 40.1903C112.246 42.4752 114.005 44.2729 116.23 45.5648L116.732 44.7ZM111.832 39.7L112.713 39.2259C111.636 37.2257 111.082 34.8931 111.082 32.2H110.082H109.082C109.082 35.1736 109.696 37.841 110.952 40.1741L111.832 39.7ZM110.082 32.2H111.082C111.082 29.5019 111.621 27.1849 112.666 25.2192L111.782 24.75L110.899 24.2808C109.677 26.5817 109.082 29.2314 109.082 32.2H110.082ZM111.782 24.75L112.663 25.2241C113.743 23.2173 115.228 21.6911 117.124 20.6208L116.632 19.75L116.141 18.8792C113.903 20.1422 112.155 21.9494 110.902 24.2759L111.782 24.75ZM116.632 19.75L117.118 20.6242C119.052 19.5498 121.281 19 123.832 19V18V17C120.984 17 118.413 17.6168 116.147 18.8758L116.632 19.75ZM123.832 18V19C126.282 19 128.428 19.5325 130.296 20.5735L130.782 19.7L131.269 18.8265C129.07 17.6009 126.583 17 123.832 17V18ZM130.782 19.7L130.296 20.5735C132.162 21.614 133.612 23.0769 134.656 24.9808L135.532 24.5L136.409 24.0192C135.187 21.7897 133.469 20.0527 131.269 18.8265L130.782 19.7ZM135.532 24.5L134.659 24.9869C135.698 26.8508 136.232 29.0286 136.232 31.55H137.232H138.232C138.232 28.738 137.634 26.2158 136.406 24.0131L135.532 24.5ZM131.282 29.75L132.282 29.7341C132.245 27.3759 131.388 25.413 129.686 23.9432L129.032 24.7L128.379 25.4568C129.61 26.5203 130.253 27.9241 130.283 29.7659L131.282 29.75ZM129.032 24.7L129.686 23.9432C128.016 22.5009 125.959 21.8 123.582 21.8V22.8V23.8C125.539 23.8 127.115 24.3658 128.379 25.4568L129.032 24.7ZM123.582 22.8V21.8C121.379 21.8 119.454 22.518 117.862 23.9585L118.532 24.7L119.203 25.4415C120.411 24.3487 121.852 23.8 123.582 23.8V22.8ZM118.532 24.7L117.871 23.9496C116.261 25.3687 115.332 27.2897 115.04 29.626L116.032 29.75L117.025 29.874C117.266 27.9437 118.004 26.498 119.193 25.4504L118.532 24.7ZM116.032 29.75V30.75H131.282V29.75V28.75H116.032V29.75ZM161.542 19.35L161.074 20.2338L161.081 20.2375L161.542 19.35ZM165.592 23.35L164.715 23.83V23.83L165.592 23.35ZM167.042 46V47H168.042V46H167.042ZM161.392 46H160.392V47H161.392V46ZM159.542 24.95L158.808 25.6291L158.816 25.6383L159.542 24.95ZM149.392 24.95L148.667 24.2612L148.666 24.2617L149.392 24.95ZM147.542 46V47H148.542V46H147.542ZM141.842 46H140.842V47H141.842V46ZM141.842 18.45V17.45H140.842V18.45H141.842ZM147.542 18.45H148.542V17.45H147.542V18.45ZM147.542 21.6H146.542V24.3873L148.314 22.2357L147.542 21.6ZM151.092 18.95L150.695 18.0319L150.688 18.0353L151.092 18.95ZM155.742 18V19C157.766 19 159.535 19.4193 161.074 20.2338L161.542 19.35L162.01 18.4662C160.148 17.4807 158.051 17 155.742 17V18ZM161.542 19.35L161.081 20.2375C162.632 21.043 163.84 22.2317 164.715 23.83L165.592 23.35L166.469 22.87C165.41 20.9349 163.918 19.457 162.003 18.4625L161.542 19.35ZM165.592 23.35L164.715 23.83C165.583 25.4181 166.042 27.3778 166.042 29.75H167.042H168.042C168.042 27.1222 167.533 24.8153 166.469 22.87L165.592 23.35ZM167.042 29.75H166.042V46H167.042H168.042V29.75H167.042ZM167.042 46V45H161.392V46V47H167.042V46ZM161.392 46H162.392V30.6H161.392H160.392V46H161.392ZM161.392 30.6H162.392C162.392 27.9749 161.734 25.808 160.267 24.2617L159.542 24.95L158.816 25.6383C159.816 26.692 160.392 28.2917 160.392 30.6H161.392ZM159.542 24.95L160.276 24.271C158.82 22.697 156.851 21.95 154.492 21.95V22.95V23.95C156.399 23.95 157.797 24.5363 158.808 25.629L159.542 24.95ZM154.492 22.95V21.95C152.132 21.95 150.153 22.697 148.667 24.2612L149.392 24.95L150.117 25.6387C151.164 24.5363 152.585 23.95 154.492 23.95V22.95ZM149.392 24.95L148.666 24.2617C147.199 25.808 146.542 27.9749 146.542 30.6H147.542H148.542C148.542 28.2917 149.118 26.692 150.117 25.6383L149.392 24.95ZM147.542 30.6H146.542V46H147.542H148.542V30.6H147.542ZM147.542 46V45H141.842V46V47H147.542V46ZM141.842 46H142.842V18.45H141.842H140.842V46H141.842ZM141.842 18.45V19.45H147.542V18.45V17.45H141.842V18.45ZM147.542 18.45H146.542V21.6H147.542H148.542V18.45H147.542ZM147.542 21.6L148.314 22.2357C149.141 21.2308 150.195 20.4393 151.496 19.8647L151.092 18.95L150.688 18.0353C149.121 18.7273 147.809 19.7025 146.77 20.9643L147.542 21.6ZM151.092 18.95L151.488 19.8681C152.827 19.29 154.242 19 155.742 19V18V17C153.975 17 152.29 17.3433 150.695 18.0319L151.092 18.95ZM178.462 45.15L178.055 46.0631L178.062 46.0662L178.069 46.0691L178.462 45.15ZM174.062 41.65L174.877 41.0705V41.0705L174.062 41.65ZM172.462 36.4V35.4H171.462V36.4H172.462ZM178.562 36.4L179.559 36.3115L179.478 35.4H178.562V36.4ZM180.312 40.1L179.629 40.8303L179.635 40.8357L179.641 40.841L180.312 40.1ZM189.363 40.15L190.009 40.9125L190.016 40.9069L190.023 40.9012L189.363 40.15ZM189.962 33.6L189.223 34.2727L189.231 34.2817L189.239 34.2905L189.962 33.6ZM187.413 31.9L187.041 32.8285L187.052 32.8326L187.413 31.9ZM183.212 30.6L182.957 31.5667L182.962 31.568L183.212 30.6ZM177.663 28.8L177.25 29.7111L177.263 29.717L177.276 29.7224L177.663 28.8ZM174.062 15.45L174.895 16.0047V16.0047L174.062 15.45ZM178.262 12L178.669 12.9138V12.9138L178.262 12ZM192.762 13.35L192.139 14.1321L192.146 14.1374L192.153 14.1426L192.762 13.35ZM196.363 20.25V21.25H197.445L197.359 20.1707L196.363 20.25ZM190.062 20.25L189.066 20.3287L189.138 21.25H190.062V20.25ZM179.913 16.9L180.54 17.6784V17.6784L179.913 16.9ZM179.312 23.15L178.571 23.8209L178.588 23.8394L178.605 23.8571L179.312 23.15ZM185.913 26.05L186.178 25.0859L186.172 25.0844L185.913 26.05ZM191.512 27.95L191.108 28.8647L191.116 28.8681L191.512 27.95ZM195.212 30.9L194.413 31.5L194.421 31.5112L194.43 31.5222L195.212 30.9ZM195.312 41.15L194.461 40.6249L194.457 40.6315L194.453 40.6382L195.312 41.15ZM191.163 44.95L191.623 45.8378L191.629 45.8346L191.163 44.95ZM184.762 46.35V45.35C182.545 45.35 180.581 44.9701 178.856 44.2309L178.462 45.15L178.069 46.0691C180.077 46.9299 182.314 47.35 184.762 47.35V46.35ZM178.462 45.15L178.87 44.2369C177.148 43.4681 175.829 42.4092 174.877 41.0705L174.062 41.65L173.248 42.2295C174.429 43.8908 176.044 45.1652 178.055 46.0631L178.462 45.15ZM174.062 41.65L174.877 41.0705C173.942 39.7545 173.462 38.2112 173.462 36.4H172.462H171.462C171.462 38.5888 172.05 40.5455 173.248 42.2295L174.062 41.65ZM172.462 36.4V37.4H178.562V36.4V35.4H172.462V36.4ZM178.562 36.4L177.566 36.4885C177.72 38.2165 178.404 39.6841 179.629 40.8303L180.312 40.1L180.996 39.3697C180.154 38.5826 179.672 37.5835 179.559 36.3115L178.562 36.4ZM180.312 40.1L179.641 40.841C180.944 42.0218 182.695 42.55 184.762 42.55V41.55V40.55C183.03 40.55 181.814 40.1115 180.984 39.359L180.312 40.1ZM184.762 41.55V42.55C186.88 42.55 188.672 42.047 190.009 40.9125L189.363 40.15L188.716 39.3875C187.853 40.1197 186.578 40.55 184.762 40.55V41.55ZM189.363 40.15L190.023 40.9012C191.345 39.7394 192.012 38.2296 192.012 36.45H191.012H190.012C190.012 37.6704 189.58 38.6272 188.702 39.3988L189.363 40.15ZM191.012 36.45H192.012C192.012 35.0679 191.59 33.857 190.686 32.9095L189.962 33.6L189.239 34.2905C189.735 34.8096 190.012 35.4988 190.012 36.45H191.012ZM189.962 33.6L190.702 32.9273C189.92 32.0662 188.934 31.4168 187.773 30.9674L187.413 31.9L187.052 32.8326C187.957 33.1832 188.672 33.6672 189.223 34.2727L189.962 33.6ZM187.413 31.9L187.784 30.9715C186.726 30.5485 185.28 30.1029 183.463 29.632L183.212 30.6L182.962 31.568C184.745 32.0305 186.099 32.4515 187.041 32.8285L187.413 31.9ZM183.212 30.6L183.468 29.6333C181.226 29.0398 179.424 28.4533 178.049 27.8776L177.663 28.8L177.276 29.7224C178.768 30.3467 180.665 30.9602 182.957 31.5667L183.212 30.6ZM177.663 28.8L178.075 27.8889C176.834 27.3278 175.762 26.4691 174.855 25.2903L174.062 25.9L173.27 26.5097C174.363 27.9309 175.691 29.0055 177.25 29.7111L177.663 28.8ZM174.062 25.9L174.855 25.2903C174.027 24.2139 173.562 22.7169 173.562 20.7H172.562H171.562C171.562 23.0165 172.098 24.9861 173.27 26.5097L174.062 25.9ZM172.562 20.7H173.562C173.562 18.875 174.016 17.3227 174.895 16.0047L174.062 15.45L173.23 14.8953C172.109 16.5773 171.562 18.525 171.562 20.7H172.562ZM174.062 15.45L174.895 16.0047C175.78 14.6768 177.025 13.6443 178.669 12.9138L178.262 12L177.856 11.0862C175.9 11.9557 174.345 13.2232 173.23 14.8953L174.062 15.45ZM178.262 12L178.669 12.9138C180.318 12.1809 182.258 11.8 184.512 11.8V10.8V9.8C182.034 9.8 179.807 10.2191 177.856 11.0862L178.262 12ZM184.512 10.8V11.8C187.707 11.8 190.221 12.6037 192.139 14.1321L192.762 13.35L193.386 12.5679C191.037 10.6963 188.051 9.8 184.512 9.8V10.8ZM192.762 13.35L192.153 14.1426C194.077 15.6226 195.153 17.6536 195.366 20.3293L196.363 20.25L197.359 20.1707C197.106 16.9798 195.782 14.4107 193.372 12.5574L192.762 13.35ZM196.363 20.25V19.25H190.062V20.25V21.25H196.363V20.25ZM190.062 20.25L191.059 20.1713C190.935 18.5995 190.179 17.2761 188.896 16.226L188.262 17L187.629 17.774C188.546 18.5239 188.99 19.3672 189.066 20.3287L190.062 20.25ZM188.262 17L188.896 16.226C187.574 15.1445 185.88 14.65 183.913 14.65V15.65V16.65C185.545 16.65 186.751 17.0555 187.629 17.774L188.262 17ZM183.913 15.65V14.65C182.105 14.65 180.534 15.1142 179.285 16.1216L179.913 16.9L180.54 17.6784C181.358 17.0191 182.453 16.65 183.913 16.65V15.65ZM179.913 16.9L179.285 16.1216C177.972 17.1799 177.363 18.6917 177.363 20.5H178.363H179.363C179.363 19.175 179.786 18.2868 180.54 17.6784L179.913 16.9ZM178.363 20.5H177.363C177.363 21.78 177.749 22.9129 178.571 23.8209L179.312 23.15L180.054 22.4791C179.609 21.9871 179.363 21.3533 179.363 20.5H178.363ZM179.312 23.15L178.605 23.8571C179.381 24.6322 180.333 25.2353 181.441 25.6785L181.812 24.75L182.184 23.8215C181.292 23.4647 180.578 23.0011 180.02 22.4429L179.312 23.15ZM181.812 24.75L181.441 25.6785C182.493 26.0994 183.903 26.5445 185.653 27.0156L185.913 26.05L186.172 25.0844C184.456 24.6222 183.132 24.2006 182.184 23.8215L181.812 24.75ZM185.913 26.05L185.647 27.0141C187.921 27.6404 189.737 28.2586 191.108 28.8647L191.512 27.95L191.917 27.0353C190.422 26.3747 188.504 25.7263 186.178 25.0859L185.913 26.05ZM191.512 27.95L191.116 28.8681C192.416 29.4293 193.512 30.2998 194.413 31.5L195.212 30.9L196.012 30.3C194.913 28.8336 193.543 27.7374 191.909 27.0319L191.512 27.95ZM195.212 30.9L194.43 31.5222C195.283 32.5952 195.762 34.1024 195.762 36.15H196.762H197.762C197.762 33.7976 197.209 31.8048 195.995 30.2778L195.212 30.9ZM196.762 36.15H195.762C195.762 37.7232 195.335 39.2091 194.461 40.6249L195.312 41.15L196.164 41.6751C197.223 39.9576 197.762 38.1101 197.762 36.15H196.762ZM195.312 41.15L194.453 40.6382C193.627 42.0262 192.389 43.1726 190.696 44.0654L191.163 44.95L191.629 45.8346C193.602 44.7941 195.132 43.4072 196.172 41.6618L195.312 41.15ZM191.163 44.95L190.702 44.0622C189.072 44.9075 187.103 45.35 184.762 45.35V46.35V47.35C187.355 47.35 189.653 46.8591 191.623 45.8378L191.163 44.95ZM202.288 24.75L201.408 24.2759L201.405 24.2808L202.288 24.75ZM207.088 19.75L206.591 18.8826V18.8826L207.088 19.75ZM222.338 20.4L221.744 21.2044L221.751 21.2096L221.758 21.2146L222.338 20.4ZM226.788 27.15V28.15H228.083L227.756 26.8971L226.788 27.15ZM220.638 27.15L219.699 27.4936L219.939 28.15H220.638V27.15ZM208.488 25.3L207.723 24.6568L207.721 24.6583L208.488 25.3ZM208.488 39.15L207.715 39.7841L207.723 39.7932L208.488 39.15ZM220.638 37.3V36.3H219.941L219.7 36.9548L220.638 37.3ZM226.788 37.3L227.75 37.5747L228.114 36.3H226.788V37.3ZM222.288 44L222.884 44.8029L222.892 44.7971L222.288 44ZM207.088 44.7L206.58 45.5613L206.591 45.5674L207.088 44.7ZM202.288 39.7L201.402 40.1635L201.406 40.1717L201.411 40.1798L202.288 39.7ZM200.588 32.2H201.588C201.588 29.5019 202.127 27.1849 203.171 25.2192L202.288 24.75L201.405 24.2808C200.183 26.5817 199.588 29.2314 199.588 32.2H200.588ZM202.288 24.75L203.169 25.2241C204.252 23.2131 205.723 21.6865 207.586 20.6174L207.088 19.75L206.591 18.8826C204.387 20.1468 202.658 21.9536 201.408 24.2759L202.288 24.75ZM207.088 19.75L207.586 20.6174C209.45 19.5479 211.608 19 214.088 19V18V17C211.302 17 208.793 17.6187 206.591 18.8826L207.088 19.75ZM214.088 18V19C217.259 19 219.787 19.759 221.744 21.2044L222.338 20.4L222.932 19.5956C220.556 17.841 217.584 17 214.088 17V18ZM222.338 20.4L221.758 21.2146C223.744 22.6285 225.106 24.6668 225.821 27.4029L226.788 27.15L227.756 26.8971C226.938 23.7665 225.333 21.3049 222.918 19.5854L222.338 20.4ZM226.788 27.15V26.15H220.638V27.15V28.15H226.788V27.15ZM220.638 27.15L221.577 26.8064C221.013 25.2642 220.093 24.0238 218.81 23.1296L218.238 23.95L217.666 24.7704C218.583 25.4095 219.263 26.3025 219.699 27.4936L220.638 27.15ZM218.238 23.95L218.81 23.1296C217.505 22.2203 215.909 21.8 214.088 21.8V22.8V23.8C215.601 23.8 216.771 24.1464 217.666 24.7704L218.238 23.95ZM214.088 22.8V21.8C211.484 21.8 209.328 22.746 207.723 24.6568L208.488 25.3L209.254 25.9432C210.449 24.5206 212.026 23.8 214.088 23.8V22.8ZM208.488 25.3L207.721 24.6583C206.154 26.531 205.438 29.0901 205.438 32.2H206.438H207.438C207.438 29.3766 208.089 27.3357 209.255 25.9417L208.488 25.3ZM206.438 32.2H205.438C205.438 35.3115 206.155 37.8816 207.715 39.7841L208.488 39.15L209.262 38.5159C208.088 37.0851 207.438 35.0219 207.438 32.2H206.438ZM208.488 39.15L207.723 39.7932C209.328 41.704 211.484 42.65 214.088 42.65V41.65V40.65C212.026 40.65 210.449 39.9294 209.254 38.5068L208.488 39.15ZM214.088 41.65V42.65C215.884 42.65 217.461 42.2545 218.754 41.3955C220.053 40.533 220.984 39.2578 221.577 37.6452L220.638 37.3L219.7 36.9548C219.226 38.2422 218.532 39.142 217.648 39.7295C216.758 40.3205 215.592 40.65 214.088 40.65V41.65ZM220.638 37.3V38.3H226.788V37.3V36.3H220.638V37.3ZM226.788 37.3L225.827 37.0253C225.083 39.6293 223.702 41.6745 221.684 43.2029L222.288 44L222.892 44.7971C225.275 42.9921 226.894 40.5707 227.75 37.5747L226.788 37.3ZM222.288 44L221.692 43.1971C219.696 44.6792 217.183 45.45 214.088 45.45V46.45V47.45C217.527 47.45 220.481 46.5874 222.884 44.8029L222.288 44ZM214.088 46.45V45.45C211.608 45.45 209.45 44.9021 207.586 43.8326L207.088 44.7L206.591 45.5674C208.793 46.8313 211.302 47.45 214.088 47.45V46.45ZM207.088 44.7L207.597 43.8388C205.723 42.7332 204.249 41.2004 203.166 39.2202L202.288 39.7L201.411 40.1798C202.661 42.4663 204.387 44.2668 206.58 45.5612L207.088 44.7ZM202.288 39.7L203.174 39.2365C202.127 37.2341 201.588 34.8976 201.588 32.2H200.588H199.588C199.588 35.169 200.183 37.8326 201.402 40.1635L202.288 39.7ZM236.369 44.7L235.873 45.5683L235.883 45.5742L236.369 44.7ZM231.419 39.7L230.544 40.1845L230.547 40.1903L231.419 39.7ZM236.519 19.75L236.039 18.8726V18.8726L236.519 19.75ZM250.819 19.75L251.299 18.8726V18.8726L250.819 19.75ZM255.819 39.65L254.955 39.1453L255.819 39.65ZM250.619 44.7L251.093 45.5805L251.098 45.5779L250.619 44.7ZM247.519 40.45L247.045 39.5695L247.035 39.5748L247.519 40.45ZM250.669 37.3L249.801 36.8039V36.8039L250.669 37.3ZM250.719 27.15L249.842 27.6303L249.847 27.6393L250.719 27.15ZM239.469 24L238.985 23.1247L238.975 23.1303L239.469 24ZM236.519 27.15L237.4 27.6228L237.405 27.614L236.519 27.15ZM237.669 39.1L236.932 39.7764L236.939 39.7842L236.947 39.7919L237.669 39.1ZM243.419 46.45V45.45C240.974 45.45 238.794 44.9033 236.854 43.8258L236.369 44.7L235.883 45.5742C238.144 46.8301 240.663 47.45 243.419 47.45V46.45ZM236.369 44.7L236.865 43.8318C234.924 42.7226 233.403 41.1874 232.29 39.2097L231.419 39.7L230.547 40.1903C231.835 42.4792 233.614 44.2774 235.873 45.5682L236.369 44.7ZM231.419 39.7L232.294 39.2155C231.187 37.2173 230.619 34.8885 230.619 32.2H229.619H228.619C228.619 35.1781 229.251 37.8494 230.544 40.1845L231.419 39.7ZM229.619 32.2H230.619C230.619 29.5517 231.2 27.2428 232.338 25.2447L231.469 24.75L230.6 24.2553C229.27 26.5906 228.619 29.2483 228.619 32.2H229.619ZM231.469 24.75L232.338 25.2447C233.482 23.2349 235.032 21.7027 236.999 20.6274L236.519 19.75L236.039 18.8726C233.739 20.1306 231.922 21.9317 230.6 24.2553L231.469 24.75ZM236.519 19.75L236.999 20.6274C238.973 19.5478 241.189 19 243.669 19V18V17C240.882 17 238.331 17.6189 236.039 18.8726L236.519 19.75ZM243.669 18V19C246.149 19 248.365 19.5478 250.339 20.6274L250.819 19.75L251.299 18.8726C249.006 17.6189 246.455 17 243.669 17V18ZM250.819 19.75L250.339 20.6274C252.305 21.7027 253.856 23.2349 255 25.2447L255.869 24.75L256.738 24.2553C255.415 21.9317 253.599 20.1306 251.299 18.8726L250.819 19.75ZM255.869 24.75L255 25.2447C256.137 27.2428 256.719 29.5517 256.719 32.2H257.719H258.719C258.719 29.2483 258.067 26.5906 256.738 24.2553L255.869 24.75ZM257.719 32.2H256.719C256.719 34.8436 256.123 37.1489 254.955 39.1453L255.819 39.65L256.682 40.1547C258.048 37.8177 258.719 35.1564 258.719 32.2H257.719ZM255.819 39.65L254.955 39.1453C253.78 41.1552 252.18 42.7094 250.14 43.8221L250.619 44.7L251.098 45.5779C253.458 44.2906 255.324 42.4782 256.682 40.1547L255.819 39.65ZM250.619 44.7L250.145 43.8195C248.134 44.9023 245.899 45.45 243.419 45.45V46.45V47.45C246.206 47.45 248.77 46.8311 251.093 45.5805L250.619 44.7ZM243.419 41.5V42.5C245.052 42.5 246.586 42.1082 248.002 41.3252L247.519 40.45L247.035 39.5748C245.919 40.1918 244.719 40.5 243.419 40.5V41.5ZM247.519 40.45L247.993 41.3305C249.473 40.5337 250.653 39.3431 251.537 37.7961L250.669 37.3L249.801 36.8039C249.084 38.0569 248.165 38.9663 247.045 39.5695L247.519 40.45ZM250.669 37.3L251.537 37.7961C252.442 36.2128 252.869 34.3326 252.869 32.2H251.869H250.869C250.869 34.0674 250.496 35.5872 249.801 36.8039L250.669 37.3ZM251.869 32.2H252.869C252.869 30.075 252.461 28.2126 251.591 26.6607L250.719 27.15L249.847 27.6393C250.509 28.8207 250.869 30.325 250.869 32.2H251.869ZM250.719 27.15L251.596 26.6697C250.748 25.1211 249.602 23.9258 248.152 23.1248L247.669 24L247.185 24.8752C248.269 25.4742 249.156 26.3789 249.842 27.6303L250.719 27.15ZM247.669 24L248.152 23.1248C246.736 22.3418 245.202 21.95 243.569 21.95V22.95V23.95C244.869 23.95 246.069 24.2582 247.185 24.8752L247.669 24ZM243.569 22.95V21.95C241.935 21.95 240.402 22.3418 238.985 23.1248L239.469 24L239.952 24.8752C241.069 24.2582 242.269 23.95 243.569 23.95V22.95ZM239.469 24L238.975 23.1303C237.556 23.9357 236.445 25.136 235.633 26.686L236.519 27.15L237.405 27.614C238.059 26.364 238.915 25.4643 239.962 24.8697L239.469 24ZM236.519 27.15L235.638 26.6772C234.807 28.2253 234.419 30.0814 234.419 32.2H235.419H236.419C236.419 30.3186 236.764 28.808 237.4 27.6228L236.519 27.15ZM235.419 32.2H234.419C234.419 35.331 235.212 37.9036 236.932 39.7764L237.669 39.1L238.405 38.4236C237.125 37.0297 236.419 35.0024 236.419 32.2H235.419ZM237.669 39.1L236.947 39.7919C238.677 41.5969 240.858 42.5 243.419 42.5V41.5V40.5C241.38 40.5 239.728 39.8031 238.391 38.4081L237.669 39.1ZM268.054 22.45H267.054V26.0851L268.913 22.9615L268.054 22.45ZM271.354 19.2L271.843 20.0722L271.85 20.0682L271.354 19.2ZM276.304 18H277.304V17H276.304V18ZM276.304 23.9V24.9H277.304V23.9H276.304ZM269.754 25.6L269.057 24.8827L269.052 24.8878L269.046 24.8929L269.754 25.6ZM268.054 46V47H269.054V46H268.054ZM262.354 46H261.354V47H262.354V46ZM262.354 18.45V17.45H261.354V18.45H262.354ZM268.054 18.45H269.054V17.45H268.054V18.45ZM268.054 22.45L268.913 22.9615C269.66 21.7058 270.635 20.7496 271.843 20.0721L271.354 19.2L270.864 18.3279C269.339 19.1837 268.113 20.3942 267.194 21.9385L268.054 22.45ZM271.354 19.2L271.85 20.0682C273.074 19.3689 274.546 19 276.304 19V18V17C274.261 17 272.433 17.4311 270.857 18.3318L271.354 19.2ZM276.304 18H275.304V23.9H276.304H277.304V18H276.304ZM276.304 23.9V22.9H274.854V23.9V24.9H276.304V23.9ZM274.854 23.9V22.9C272.459 22.9 270.471 23.5093 269.057 24.8827L269.754 25.6L270.45 26.3173C271.37 25.4241 272.782 24.9 274.854 24.9V23.9ZM269.754 25.6L269.046 24.8929C267.627 26.3125 267.054 28.6182 267.054 31.5H268.054H269.054C269.054 28.7818 269.614 27.1542 270.461 26.3071L269.754 25.6ZM268.054 31.5H267.054V46H268.054H269.054V31.5H268.054ZM268.054 46V45H262.354V46V47H268.054V46ZM262.354 46H263.354V18.45H262.354H261.354V46H262.354ZM262.354 18.45V19.45H268.054V18.45V17.45H262.354V18.45ZM268.054 18.45H267.054V22.45H268.054H269.054V18.45H268.054ZM305.593 34.35V35.35H306.446L306.58 34.508L305.593 34.35ZM284.543 34.35V33.35H283.464L283.546 34.4255L284.543 34.35ZM286.993 39.65L286.32 40.3899V40.3899L286.993 39.65ZM298.893 37.8V36.8H298.271L297.996 37.3575L298.893 37.8ZM305.043 37.8L305.993 38.1125L306.425 36.8H305.043V37.8ZM300.493 44.05L301.087 44.8544L301.089 44.8529L300.493 44.05ZM285.293 44.7L284.791 45.5648L284.799 45.5695L284.807 45.5742L285.293 44.7ZM280.393 39.7L279.513 40.1741L279.517 40.1822L279.521 40.1903L280.393 39.7ZM280.343 24.75L279.462 24.2759L279.46 24.2808L280.343 24.75ZM285.193 19.75L284.707 18.8758L284.701 18.8792L285.193 19.75ZM299.343 19.7L299.83 18.8265V18.8265L299.343 19.7ZM304.093 24.5L303.216 24.9808L303.219 24.9869L304.093 24.5ZM299.843 29.75V30.75H300.859L300.843 29.7341L299.843 29.75ZM297.593 24.7L298.247 23.9432V23.9432L297.593 24.7ZM287.093 24.7L287.754 25.4504L287.764 25.4415L287.093 24.7ZM284.593 29.75L283.601 29.626L283.46 30.75H284.593V29.75ZM305.793 31.55H304.793C304.793 32.5417 304.729 33.421 304.606 34.192L305.593 34.35L306.58 34.508C306.724 33.6124 306.793 32.625 306.793 31.55H305.793ZM305.593 34.35V33.35H284.543V34.35V35.35H305.593V34.35ZM284.543 34.35L283.546 34.4255C283.729 36.849 284.643 38.8647 286.32 40.3899L286.993 39.65L287.666 38.9101C286.41 37.7686 285.69 36.2509 285.54 34.2745L284.543 34.35ZM286.993 39.65L286.32 40.3899C287.986 41.904 290.032 42.65 292.393 42.65V41.65V40.65C290.488 40.65 288.934 40.0626 287.666 38.9101L286.993 39.65ZM292.393 41.65V42.65C294.067 42.65 295.56 42.299 296.828 41.5479C298.1 40.7944 299.083 39.6753 299.79 38.2425L298.893 37.8L297.996 37.3575C297.437 38.4914 296.703 39.2973 295.808 39.8271C294.91 40.3594 293.786 40.65 292.393 40.65V41.65ZM298.893 37.8V38.8H305.043V37.8V36.8H298.893V37.8ZM305.043 37.8L304.093 37.4875C303.326 39.8191 301.936 41.7332 299.897 43.2471L300.493 44.05L301.089 44.8529C303.45 43.1001 305.093 40.8475 305.993 38.1125L305.043 37.8ZM300.493 44.05L299.899 43.2456C297.937 44.6947 295.456 45.45 292.393 45.45V46.45V47.45C295.796 47.45 298.716 46.6053 301.087 44.8544L300.493 44.05ZM292.393 46.45V45.45C289.913 45.45 287.716 44.9022 285.779 43.8258L285.293 44.7L284.807 45.5742C287.07 46.8311 289.606 47.45 292.393 47.45V46.45ZM285.293 44.7L285.795 43.8352C283.887 42.7271 282.379 41.1914 281.265 39.2097L280.393 39.7L279.521 40.1903C280.807 42.4752 282.566 44.2729 284.791 45.5648L285.293 44.7ZM280.393 39.7L281.273 39.2259C280.196 37.2257 279.643 34.8931 279.643 32.2H278.643H277.643C277.643 35.1736 278.256 37.841 279.513 40.1741L280.393 39.7ZM278.643 32.2H279.643C279.643 29.5019 280.182 27.1849 281.226 25.2192L280.343 24.75L279.46 24.2808C278.237 26.5817 277.643 29.2314 277.643 32.2H278.643ZM280.343 24.75L281.223 25.2241C282.304 23.2173 283.789 21.6911 285.685 20.6208L285.193 19.75L284.701 18.8792C282.464 20.1422 280.715 21.9494 279.462 24.2759L280.343 24.75ZM285.193 19.75L285.679 20.6242C287.612 19.5498 289.841 19 292.393 19V18V17C289.544 17 286.974 17.6168 284.707 18.8758L285.193 19.75ZM292.393 18V19C294.843 19 296.988 19.5325 298.856 20.5735L299.343 19.7L299.83 18.8265C297.631 17.6009 295.143 17 292.393 17V18ZM299.343 19.7L298.856 20.5735C300.723 21.614 302.172 23.0769 303.216 24.9808L304.093 24.5L304.97 24.0192C303.747 21.7897 302.03 20.0527 299.83 18.8265L299.343 19.7ZM304.093 24.5L303.219 24.9869C304.258 26.8508 304.793 29.0286 304.793 31.55H305.793H306.793C306.793 28.738 306.194 26.2158 304.966 24.0131L304.093 24.5ZM299.843 29.75L300.843 29.7341C300.805 27.3759 299.949 25.413 298.247 23.9432L297.593 24.7L296.939 25.4568C298.171 26.5203 298.814 27.9241 298.843 29.7659L299.843 29.75ZM297.593 24.7L298.247 23.9432C296.577 22.5009 294.519 21.8 292.143 21.8V22.8V23.8C294.1 23.8 295.676 24.3658 296.939 25.4568L297.593 24.7ZM292.143 22.8V21.8C289.94 21.8 288.014 22.518 286.422 23.9585L287.093 24.7L287.764 25.4415C288.972 24.3487 290.413 23.8 292.143 23.8V22.8ZM287.093 24.7L286.432 23.9496C284.821 25.3687 283.893 27.2897 283.601 29.626L284.593 29.75L285.585 29.874C285.827 27.9437 286.565 26.498 287.754 25.4504L287.093 24.7ZM284.593 29.75V30.75H299.843V29.75V28.75H284.593V29.75Z" fill="#252525" mask="url(#path-1-outside-1_3269_3228)"/>
</g>
<defs>
<filter id="filter0_d_3269_3228" x="0" y="6.5" width="306.793" height="55.6001" filterUnits="userSpaceOnUse" color-interpolation-filters="sRGB">
<feFlood flood-opacity="0" result="BackgroundImageFix"/>
<feColorMatrix in="SourceAlpha" type="matrix" values="0 0 0 0 0 0 0 0 0 0 0 0 0 0 0 0 0 0 127 0" result="hardAlpha"/>
<feOffset dx="-3" dy="2"/>
<feComposite in2="hardAlpha" operator="out"/>
<feColorMatrix type="matrix" values="0 0 0 0 0 0 0 0 0 0 0 0 0 0 0 0 0 0 0.8 0"/>
<feBlend mode="normal" in2="BackgroundImageFix" result="effect1_dropShadow_3269_3228"/>
<feBlend mode="normal" in="SourceGraphic" in2="effect1_dropShadow_3269_3228" result="shape"/>
</filter>
</defs>
</svg>
