<svg width="431" height="440" viewBox="0 0 431 440" fill="none" xmlns="http://www.w3.org/2000/svg">
<circle cx="215.5" cy="224.025" r="215.5" fill="#060311"/>
<path d="M318.144 130.357C319.074 109.71 313.861 89.2504 303.164 71.5659C292.467 53.8813 276.766 39.766 258.047 31.0049C239.327 22.2437 218.43 19.2303 197.998 22.3456C177.566 25.4609 158.517 34.565 143.259 48.5067C128.001 62.4484 117.22 80.6015 112.279 100.67C107.339 120.739 108.46 141.823 115.501 161.254C122.543 180.686 135.188 197.593 151.839 209.838C168.489 222.083 188.397 229.115 209.044 230.046L210.928 188.261C198.545 187.703 186.605 183.485 176.619 176.142C166.633 168.798 159.049 158.658 154.826 147.004C150.603 135.35 149.931 122.705 152.894 110.669C155.857 98.6333 162.323 87.7461 171.474 79.3847C180.624 71.0233 192.049 65.5632 204.303 63.6949C216.557 61.8265 229.09 63.6338 240.316 68.8882C251.543 74.1426 260.96 82.6081 267.375 93.2143C273.791 103.82 276.917 116.091 276.359 128.474L318.144 130.357Z" fill="#FF8541"/>
<mask id="path-3-outside-1_2868_2058" maskUnits="userSpaceOnUse" x="66.4573" y="146.799" width="295.085" height="293.518" fill="black">
<rect fill="white" x="66.4573" y="146.799" width="295.085" height="293.518"/>
<path d="M110.493 292.142C110.174 312.808 115.99 333.104 127.206 350.464C138.422 367.824 154.534 381.468 173.505 389.671C192.476 397.874 213.453 400.268 233.783 396.549C254.114 392.83 272.886 383.166 287.724 368.778C302.562 354.391 312.801 335.927 317.146 315.72C321.49 295.514 319.745 274.473 312.131 255.258C304.518 236.044 291.377 219.518 274.371 207.772C257.366 196.026 237.259 189.586 216.593 189.267L215.947 231.089C228.341 231.28 240.4 235.143 250.599 242.187C260.798 249.232 268.679 259.143 273.246 270.667C277.812 282.191 278.859 294.81 276.253 306.928C273.647 319.047 267.507 330.121 258.608 338.749C249.708 347.378 238.45 353.174 226.257 355.404C214.064 357.635 201.483 356.199 190.106 351.28C178.729 346.36 169.065 338.177 162.339 327.765C155.612 317.354 152.124 305.181 152.315 292.787L110.493 292.142Z"/>
</mask>
<path d="M110.493 292.142C110.174 312.808 115.99 333.104 127.206 350.464C138.422 367.824 154.534 381.468 173.505 389.671C192.476 397.874 213.453 400.268 233.783 396.549C254.114 392.83 272.886 383.166 287.724 368.778C302.562 354.391 312.801 335.927 317.146 315.72C321.49 295.514 319.745 274.473 312.131 255.258C304.518 236.044 291.377 219.518 274.371 207.772C257.366 196.026 237.259 189.586 216.593 189.267L215.947 231.089C228.341 231.28 240.4 235.143 250.599 242.187C260.798 249.232 268.679 259.143 273.246 270.667C277.812 282.191 278.859 294.81 276.253 306.928C273.647 319.047 267.507 330.121 258.608 338.749C249.708 347.378 238.45 353.174 226.257 355.404C214.064 357.635 201.483 356.199 190.106 351.28C178.729 346.36 169.065 338.177 162.339 327.765C155.612 317.354 152.124 305.181 152.315 292.787L110.493 292.142Z" fill="#060311"/>
<path d="M110.493 292.142C110.174 312.808 115.99 333.104 127.206 350.464C138.422 367.824 154.534 381.468 173.505 389.671C192.476 397.874 213.453 400.268 233.783 396.549C254.114 392.83 272.886 383.166 287.724 368.778C302.562 354.391 312.801 335.927 317.146 315.72C321.49 295.514 319.745 274.473 312.131 255.258C304.518 236.044 291.377 219.518 274.371 207.772C257.366 196.026 237.259 189.586 216.593 189.267L215.947 231.089C228.341 231.28 240.4 235.143 250.599 242.187C260.798 249.232 268.679 259.143 273.246 270.667C277.812 282.191 278.859 294.81 276.253 306.928C273.647 319.047 267.507 330.121 258.608 338.749C249.708 347.378 238.45 353.174 226.257 355.404C214.064 357.635 201.483 356.199 190.106 351.28C178.729 346.36 169.065 338.177 162.339 327.765C155.612 317.354 152.124 305.181 152.315 292.787L110.493 292.142Z" stroke="white" stroke-width="40" mask="url(#path-3-outside-1_2868_2058)"/>
</svg>
